# xmcd
#
# Track frame offsets: 
#        150
#        8288
#        17695
#        28695
#        37541
#        49468
#        97752
#        126710
#        142364
#        151430
#        161210
#        173405
#
# Disc length: 2449 seconds
#
# Revision: 6
# Processed by: cddbd v1.5.2PL0 Copyright (c) Steve Scherf et al.
# Submitted via: ExactAudioCopyFreeDBPlugin 1.0
#
DISCID=91098f0c
DTITLE=James Brown - Live at the Apollo (Expanded Edition)
DYEAR=2004
DGENRE=Soul
TTITLE0=Introduction to James Brown
TTITLE1=I'll Go Crazy
TTITLE2=Try Me
TTITLE3=Think
TTITLE4=I Don't Mind
TTITLE5=Lost Someone
TTITLE6=Medley:  Please, Please, Please - You've Got the Power - Why D
TTITLE6=o You Do Me - I Want You So Bad - I Love You, Yes I Do - Stran
TTITLE6=ge Things Happen - Bewildered - Please, Please, Please
TTITLE7=Night Train
TTITLE8=Think (single mix)
TTITLE9=Medley:  Please, Please, Please - You've Got the Power - Why D
TTITLE9=o You Do Me - I Want You So Bad - I Love You, Yes I Do - Stran
TTITLE9=ge Things Happen - Bewildered - Please, Please, Please (single
TTITLE9=mix)
TTITLE10=Lost Someone (single mix)
TTITLE11=I'll Go Crazy (single mix)
EXTD=
EXTT0=
EXTT1=
EXTT2=
EXTT3=
EXTT4=
EXTT5=
EXTT6=
EXTT7=
EXTT8=
EXTT9=
EXTT10=
EXTT11=
PLAYORDER=
